HIERARCHY
ROOT hip
{
	OFFSET 0.000000 103.560692 0.219151
	CHANNELS 6 Xposition Yposition Zposition Zrotation Xrotation Yrotation
	JOINT pelvis
	{
		OFFSET 0.000000 1.955040 1.591925
		CHANNELS 3 Zrotation Xrotation Yrotation
		JOINT lThigh
		{
			OFFSET 8.341582 -7.629402 -0.646910
			CHANNELS 3 Zrotation Xrotation Yrotation
			JOINT lShin
			{
				OFFSET 2.185763 -45.093132 -0.705710
				CHANNELS 3 Zrotation Xrotation Yrotation
				JOINT lFoot
				{
					OFFSET 0.730976 -46.379768 -2.264282
					CHANNELS 3 Zrotation Xrotation Yrotation
					JOINT lToe
					{
						OFFSET 2.797621 -4.200020 10.742415
						CHANNELS 3 Zrotation Xrotation Yrotation
						JOINT lBigToe
						{
							OFFSET -2.433708 -0.269072 1.841711
							CHANNELS 3 Zrotation Xrotation Yrotation
							End Site
							{
								OFFSET -10.527346 -33.657166 -1.340707
							}
						}
					}
				}
			}
		}
		JOINT rThigh
		{
			OFFSET -8.341582 -7.629402 -0.646910
			CHANNELS 3 Zrotation Xrotation Yrotation
			JOINT rShin
			{
				OFFSET -2.185763 -45.093132 -0.705710
				CHANNELS 3 Zrotation Xrotation Yrotation
				JOINT rFoot
				{
					OFFSET -0.730976 -46.379768 -2.264282
					CHANNELS 3 Zrotation Xrotation Yrotation
					JOINT rToe
					{
						OFFSET -2.797621 -4.200019 10.742415
						CHANNELS 3 Zrotation Xrotation Yrotation
						JOINT rBigToe
						{
							OFFSET 2.433708 -0.269072 1.841711
							CHANNELS 3 Zrotation Xrotation Yrotation
							End Site
							{
								OFFSET 0.000000 24.298409 -0.425647
							}
						}
					}
				}
			}
		}
	}
	JOINT abdomen
	{
		OFFSET 0.000000 1.841293 -3.551421
		CHANNELS 3 Zrotation Xrotation Yrotation
		JOINT abdomen2
		{
			OFFSET 0.000000 5.439911 3.419600
			CHANNELS 3 Zrotation Xrotation Yrotation
			JOINT chest
			{
				OFFSET 0.000000 14.715073 -2.918270
				CHANNELS 3 Zrotation Xrotation Yrotation
				JOINT neck
				{
					OFFSET 0.000000 26.294655 -1.248052
					CHANNELS 3 Zrotation Xrotation Yrotation
					JOINT head
					{
						OFFSET 0.000000 8.807068 1.063695
						CHANNELS 3 Zrotation Xrotation Yrotation
						JOINT rEye
						{
							OFFSET -3.030866 6.632080 7.702687
							CHANNELS 3 Zrotation Xrotation Yrotation
							End Site
							{
								OFFSET 2.969555 -11.022598 8.626689
							}
						}
						JOINT lEye
						{
							OFFSET 3.030866 6.632080 7.702687
							CHANNELS 3 Zrotation Xrotation Yrotation
							End Site
							{
								OFFSET 0.000000 -15.881760 10.104412
							}
						}
						JOINT upperJaw
						{
							OFFSET 0.000000 1.922699 2.891887
							CHANNELS 3 Zrotation Xrotation Yrotation
							End Site
							{
								OFFSET 0.000000 -19.386169 10.230839
							}
						}
						JOINT lowerJaw
						{
							OFFSET 0.000000 1.857620 2.686640
							CHANNELS 3 Zrotation Xrotation Yrotation
							JOINT tongueBase
							{
								OFFSET 0.000000 -3.019135 2.746916
								CHANNELS 3 Zrotation Xrotation Yrotation
								JOINT tongue01
								{
									OFFSET 0.000000 0.664124 0.223355
									CHANNELS 3 Zrotation Xrotation Yrotation
									JOINT tongue02
									{
										OFFSET 0.000000 0.339737 0.715627
										CHANNELS 3 Zrotation Xrotation Yrotation
										JOINT tongue03
										{
											OFFSET 0.000000 0.123444 0.730634
											CHANNELS 3 Zrotation Xrotation Yrotation
											JOINT tongue04
											{
												OFFSET 0.000000 0.017212 0.737415
												CHANNELS 3 Zrotation Xrotation Yrotation
												JOINT tongue05
												{
													OFFSET 0.000000 -0.021011 0.632440
													CHANNELS 3 Zrotation Xrotation Yrotation
													JOINT tongueTip
													{
														OFFSET 0.000000 -0.014404 0.601796
														CHANNELS 3 Zrotation Xrotation Yrotation
														End Site
														{
															OFFSET -14.139406 -2.625778 0.472826
														}
													}
												}
											}
										}
									}
								}
							}
						}
					}
				}
				JOINT rCollar
				{
					OFFSET -2.109295 21.452370 3.768136
					CHANNELS 3 Zrotation Xrotation Yrotation
					JOINT rShldr
					{
						OFFSET -11.491621 -2.568573 -4.940255
						CHANNELS 3 Zrotation Xrotation Yrotation
						JOINT rForeArm
						{
							OFFSET -28.789030 -0.213806 2.098380
							CHANNELS 3 Zrotation Xrotation Yrotation
							JOINT rHand
							{
								OFFSET -22.260895 -0.869583 10.391586
								CHANNELS 3 Zrotation Xrotation Yrotation
								JOINT rThumb1
								{
									OFFSET -0.628075 0.137405 2.362409
									CHANNELS 3 Zrotation Xrotation Yrotation
									JOINT rThumb2
									{
										OFFSET 0.085205 -0.600235 3.826079
										CHANNELS 3 Zrotation Xrotation Yrotation
										JOINT rThumb3
										{
											OFFSET -1.255478 -0.879211 2.439162
											CHANNELS 3 Zrotation Xrotation Yrotation
											End Site
											{
												OFFSET -2.963715 0.538574 4.059553
											}
										}
									}
								}
								JOINT rCarpal1
								{
									OFFSET -0.855530 1.026047 1.621985
									CHANNELS 3 Zrotation Xrotation Yrotation
									JOINT rIndex1
									{
										OFFSET -3.951324 0.390884 3.873290
										CHANNELS 3 Zrotation Xrotation Yrotation
										JOINT rIndex2
										{
											OFFSET -3.071884 -1.259598 2.506104
											CHANNELS 3 Zrotation Xrotation Yrotation
											JOINT rIndex3
											{
												OFFSET -1.394112 -1.446640 1.203302
												CHANNELS 3 Zrotation Xrotation Yrotation
												End Site
												{
													OFFSET -3.392448 -1.258026 0.533405
												}
											}
										}
									}
									JOINT rMid1
									{
										OFFSET -5.422974 0.107910 2.002650
										CHANNELS 3 Zrotation Xrotation Yrotation
										JOINT rMid2
										{
											OFFSET -3.599533 -1.323776 2.090647
											CHANNELS 3 Zrotation Xrotation Yrotation
											JOINT rMid3
											{
												OFFSET -1.360191 -1.598495 1.068055
												CHANNELS 3 Zrotation Xrotation Yrotation
												End Site
												{
													OFFSET -4.087769 -0.460876 0.069540
												}
											}
										}
									}
								}
								JOINT rCarpal2
								{
									OFFSET -1.942749 0.556229 -0.337217
									CHANNELS 3 Zrotation Xrotation Yrotation
									JOINT rRing1
									{
										OFFSET -4.762787 -0.121170 2.349089
										CHANNELS 3 Zrotation Xrotation Yrotation
										JOINT rRing2
										{
											OFFSET -3.380348 -1.337097 1.356700
											CHANNELS 3 Zrotation Xrotation Yrotation
											JOINT rRing3
											{
												OFFSET -1.430290 -1.499649 0.914224
												CHANNELS 3 Zrotation Xrotation Yrotation
												End Site
												{
													OFFSET -1.783272 -2.215851 -0.391895
												}
											}
										}
									}
									JOINT rPinky1
									{
										OFFSET -5.232559 -1.313721 0.336493
										CHANNELS 3 Zrotation Xrotation Yrotation
										JOINT rPinky2
										{
											OFFSET -2.217606 -1.389603 0.800693
											CHANNELS 3 Zrotation Xrotation Yrotation
											JOINT rPinky3
											{
												OFFSET -0.886887 -1.462280 0.774199
												CHANNELS 3 Zrotation Xrotation Yrotation
												End Site
												{
													OFFSET 14.139406 -2.625778 0.472826
												}
											}
										}
									}
								}
							}
						}
					}
				}
				JOINT lCollar
				{
					OFFSET 2.109295 21.452370 3.768136
					CHANNELS 3 Zrotation Xrotation Yrotation
					JOINT lShldr
					{
						OFFSET 11.491621 -2.568573 -4.940255
						CHANNELS 3 Zrotation Xrotation Yrotation
						JOINT lForeArm
						{
							OFFSET 28.789030 -0.213806 2.098380
							CHANNELS 3 Zrotation Xrotation Yrotation
							JOINT lHand
							{
								OFFSET 22.260895 -0.869583 10.391586
								CHANNELS 3 Zrotation Xrotation Yrotation
								JOINT lThumb1
								{
									OFFSET 0.628075 0.137405 2.362409
									CHANNELS 3 Zrotation Xrotation Yrotation
									JOINT lThumb2
									{
										OFFSET -0.085205 -0.600235 3.826079
										CHANNELS 3 Zrotation Xrotation Yrotation
										JOINT lThumb3
										{
											OFFSET 1.255478 -0.879211 2.439162
											CHANNELS 3 Zrotation Xrotation Yrotation
											End Site
											{
												OFFSET 2.963715 0.538574 4.059553
											}
										}
									}
								}
								JOINT lCarpal1
								{
									OFFSET 0.855530 1.026047 1.621985
									CHANNELS 3 Zrotation Xrotation Yrotation
									JOINT lIndex1
									{
										OFFSET 3.951324 0.390884 3.873290
										CHANNELS 3 Zrotation Xrotation Yrotation
										JOINT lIndex2
										{
											OFFSET 3.071884 -1.259598 2.506104
											CHANNELS 3 Zrotation Xrotation Yrotation
											JOINT lIndex3
											{
												OFFSET 1.394112 -1.446640 1.203302
												CHANNELS 3 Zrotation Xrotation Yrotation
												End Site
												{
													OFFSET 3.392448 -1.258026 0.533405
												}
											}
										}
									}
									JOINT lMid1
									{
										OFFSET 5.422974 0.107910 2.002650
										CHANNELS 3 Zrotation Xrotation Yrotation
										JOINT lMid2
										{
											OFFSET 3.599533 -1.323776 2.090647
											CHANNELS 3 Zrotation Xrotation Yrotation
											JOINT lMid3
											{
												OFFSET 1.360191 -1.598495 1.068055
												CHANNELS 3 Zrotation Xrotation Yrotation
												End Site
												{
													OFFSET 4.087769 -0.460876 0.069540
												}
											}
										}
									}
								}
								JOINT lCarpal2
								{
									OFFSET 1.942749 0.556229 -0.337217
									CHANNELS 3 Zrotation Xrotation Yrotation
									JOINT lRing1
									{
										OFFSET 4.762787 -0.121170 2.349089
										CHANNELS 3 Zrotation Xrotation Yrotation
										JOINT lRing2
										{
											OFFSET 3.380348 -1.337097 1.356700
											CHANNELS 3 Zrotation Xrotation Yrotation
											JOINT lRing3
											{
												OFFSET 1.430290 -1.499649 0.914224
												CHANNELS 3 Zrotation Xrotation Yrotation
												End Site
												{
													OFFSET 1.783272 -2.215851 -0.391895
												}
											}
										}
									}
									JOINT lPinky1
									{
										OFFSET 5.232559 -1.313721 0.336493
										CHANNELS 3 Zrotation Xrotation Yrotation
										JOINT lPinky2
										{
											OFFSET 2.217606 -1.389603 0.800693
											CHANNELS 3 Zrotation Xrotation Yrotation
											JOINT lPinky3
											{
												OFFSET 0.886887 -1.462280 0.774199
												CHANNELS 3 Zrotation Xrotation Yrotation
												End Site
												{
													OFFSET -10.295957 -17.050110 17.461308
												}
											}
										}
									}
								}
							}
						}
					}
				}
				JOINT rPectoral
				{
					OFFSET -6.358840 6.360771 6.369920
					CHANNELS 3 Zrotation Xrotation Yrotation
					End Site
					{
						OFFSET 10.295957 -17.050110 17.461308
					}
				}
				JOINT lPectoral
				{
					OFFSET 6.358840 6.360771 6.369920
					CHANNELS 3 Zrotation Xrotation Yrotation
					End Site
					{
						OFFSET 10.295957 -17.050110 17.461308
					}
				}
			}
		}
	}
}
MOTION
Frames:	5
Frame Time:	0.0333333
0.000000 0.988563 0.000000 -0.813767 3.432118 -0.717125 0.000000 0.000000 0.000000 2.343572 -7.545967 -4.637860 -2.626070 7.682472 -11.454995 6.190229 -19.691656 8.712065 4.722871 -7.726251 1.703248 0.000000 0.000000 0.000000 -2.963244 -4.752202 0.378558 1.304116 2.275182 7.198814 -2.569720 -16.530464 8.553618 -4.394424 -8.289882 -1.796204 0.000000 0.000000 0.000000 1.739804 -2.254963 3.448780 0.000000 0.000000 0.000000 -1.286252 6.260922 2.639741 -4.538373 -17.368938 -1.669179 3.770984 12.035777 -4.176252 0.000000 0.000000 0.000000 0.000000 0.000000 0.000000 0.000000 0.000000 0.000000 0.000000 0.000000 0.000000 0.000000 0.000000 0.000000 0.002091 18.987074 -0.000350 0.000000 16.984816 0.000000 0.000000 5.997237 0.000000 -0.003221 -13.991744 -0.001883 0.000000 0.000000 0.000000 0.000000 0.000000 0.000000 12.967282 0.065469 -3.174690 65.704468 20.728872 2.954170 -3.113224 -18.721601 -19.256657 10.736995 6.544312 4.461444 -15.319602 21.766243 -8.847082 -9.911291 -11.644314 -7.274698 -18.123634 23.750624 10.967706 0.000000 0.000000 0.000000 -12.087935 -8.719740 -19.628553 -2.223866 -1.158980 0.291122 -7.677209 -5.971652 -1.309406 -9.740135 -3.721327 -7.587901 -1.783118 2.627386 -3.967547 3.453478 6.215616 -1.440359 0.000000 0.000000 0.000000 -14.823279 -9.916842 -2.952396 14.904371 10.481882 -6.850310 11.617737 10.916383 -0.445539 -21.915325 -24.314816 -15.508899 1.840611 7.770284 -6.102724 27.438496 15.370690 3.026001 -17.969461 -0.082608 3.837667 -57.723297 24.763731 -2.182733 -0.451314 -12.991377 8.537624 -2.243164 1.780490 -2.891209 20.264267 16.012875 11.237601 5.406654 -14.233193 -9.902623 16.498470 20.810619 -16.029562 0.000000 0.000000 0.000000 10.482573 -8.511680 17.446299 2.316460 0.146047 1.334236 6.204242 -3.793490 1.179642 8.647410 -3.307333 7.176097 0.594762 3.049653 3.815826 -0.477300 4.595424 2.175196 0.000000 0.000000 0.000000 7.611762 -8.343161 0.037960 -3.860701 4.744806 6.979626 -1.274504 8.359025 3.952809 21.910975 -24.665459 14.976170 -1.013100 5.939873 6.999186 -24.181866 21.167570 1.929443 0.115592 -0.005675 -0.339408 -0.150759 -0.007537 0.442688 
0.000000 0.988563 0.000000 -0.813767 3.432118 -0.717125 0.000000 0.000000 0.000000 2.343572 -7.545967 -4.637860 -2.626070 7.682472 -11.454995 6.190229 -19.691656 8.712065 4.722871 -7.726251 1.703248 0.000000 0.000000 0.000000 -2.963244 -4.752202 0.378558 1.304116 2.275182 7.198814 -2.569720 -16.530464 8.553618 -4.394424 -8.289882 -1.796204 0.000000 0.000000 0.000000 1.739804 -2.254963 3.448780 0.000000 0.000000 0.000000 -1.286252 6.260922 2.639741 -4.538373 -17.368938 -1.669179 3.770984 12.035777 -4.176252 0.000000 0.000000 0.000000 0.000000 0.000000 0.000000 0.000000 0.000000 0.000000 0.000000 0.000000 0.000000 0.000000 0.000000 0.000000 0.002091 18.987074 -0.000350 0.000000 16.984816 0.000000 0.000000 5.997237 0.000000 -0.003221 -13.991744 -0.001883 0.000000 0.000000 0.000000 0.000000 0.000000 0.000000 12.967282 0.065469 -3.174690 65.704468 20.728872 2.954170 -3.113224 -18.721601 -19.256657 10.736995 6.544312 4.461444 -15.319602 21.766243 -8.847082 -9.911291 -11.644314 -7.274698 -18.123634 23.750624 10.967706 0.000000 0.000000 0.000000 -12.087935 -8.719740 -19.628553 -2.223866 -1.158980 0.291122 -7.677209 -5.971652 -1.309406 -9.740135 -3.721327 -7.587901 -1.783118 2.627386 -3.967547 3.453478 6.215616 -1.440359 0.000000 0.000000 0.000000 -14.823279 -9.916842 -2.952396 14.904371 10.481882 -6.850310 11.617737 10.916383 -0.445539 -21.915325 -24.314816 -15.508899 1.840611 7.770284 -6.102724 27.438496 15.370690 3.026001 -17.969461 -0.082608 3.837667 -57.723297 24.763731 -2.182733 -0.451314 -12.991377 8.537624 -2.243164 1.780490 -2.891209 20.264267 16.012875 11.237601 5.406654 -14.233193 -9.902623 16.498470 20.810619 -16.029562 0.000000 0.000000 0.000000 10.482573 -8.511680 17.446299 2.316460 0.146047 1.334236 6.204242 -3.793490 1.179642 8.647410 -3.307333 7.176097 0.594762 3.049653 3.815826 -0.477300 4.595424 2.175196 0.000000 0.000000 0.000000 7.611762 -8.343161 0.037960 -3.860701 4.744806 6.979626 -1.274504 8.359025 3.952809 21.910975 -24.665459 14.976170 -1.013100 5.939873 6.999186 -24.181866 21.167570 1.929443 0.115592 -0.005675 -0.339408 -0.150759 -0.007537 0.442688 
0.085396 0.994534 0.001433 -0.745528 3.546907 -0.761358 0.000000 0.000000 0.000000 2.187465 -7.533968 -4.707440 -2.624162 7.401315 -12.156187 6.604767 -19.308954 9.543265 4.548791 -8.091041 1.718213 0.000000 0.000000 0.000000 -3.047375 -4.795449 0.497743 1.254085 2.111609 7.138567 -2.530020 -16.491192 8.549850 -4.394424 -8.289882 -1.796204 0.000000 0.000000 0.000000 1.563187 -2.609604 3.384050 0.000000 0.000000 0.000000 -0.914626 6.637587 2.503464 -4.780048 -17.506960 -1.616345 3.735641 12.020021 -4.156805 0.000000 0.000000 0.000000 0.000000 0.000000 0.000000 0.000000 0.000000 0.000000 0.000000 0.000000 0.000000 0.000000 0.000000 0.000000 0.002091 18.987074 -0.000350 0.000000 16.984816 0.000000 0.000000 5.997237 0.000000 -0.003221 -13.991744 -0.001883 0.000000 0.000000 0.000000 0.000000 0.000000 0.000000 12.833016 0.081704 -3.077555 65.131073 20.311419 3.768064 -2.963289 -18.096327 -19.531414 10.998966 6.448161 4.024207 -14.594049 21.975046 -9.232518 -9.703066 -11.798834 -6.426189 -18.123634 23.750624 10.967706 0.000000 0.000000 0.000000 -12.145825 -8.581581 -19.712900 -2.223866 -1.158980 0.291122 -7.476078 -5.789498 -1.283163 -9.740135 -3.721327 -7.587901 -1.783118 2.627386 -3.967547 3.453478 6.215616 -1.440359 0.000000 0.000000 0.000000 -14.745289 -9.968470 -2.886220 14.444900 10.288027 -6.830064 11.516826 10.865623 -0.442961 -22.114727 -24.505884 -15.353310 1.725510 7.701929 -6.135401 27.238382 15.252528 3.005669 -18.078259 -0.054736 3.732824 -57.508595 24.752384 -2.446824 -0.439672 -12.672811 8.601593 -2.427420 1.883175 -3.112343 20.264267 16.012875 11.237601 5.406654 -14.233193 -9.902623 16.498470 20.810619 -16.029562 0.000000 0.000000 0.000000 10.482573 -8.511680 17.446299 2.462614 0.012409 1.341996 6.204242 -3.793490 1.179642 8.647410 -3.307333 7.176097 0.594762 3.049653 3.815826 -0.477300 4.595424 2.175196 0.000000 0.000000 0.000000 7.507363 -8.302325 0.019154 -4.216498 4.885288 6.974498 -1.274504 8.359025 3.952809 21.824129 -24.660936 14.934613 -2.317760 6.427085 6.907257 -24.466070 21.328041 1.911336 0.112140 -0.005495 -0.329273 -0.147682 -0.007372 0.433650 
0.223465 0.998849 -0.027080 -0.691258 3.558553 -0.833102 0.000000 0.000000 0.000000 2.033264 -7.470330 -5.002544 -2.703288 7.154756 -12.021192 6.761442 -19.132088 9.856292 4.564506 -8.006015 1.722467 0.000000 0.000000 0.000000 -3.217081 -4.796880 0.536182 1.323529 2.019387 7.165525 -2.465445 -16.432081 8.541540 -4.394424 -8.289882 -1.796204 0.000000 0.000000 0.000000 1.579721 -2.574916 3.286536 0.000000 0.000000 0.000000 -0.903319 6.574753 2.424444 -4.740191 -17.509335 -1.531740 3.667969 12.001744 -4.035006 0.000000 0.000000 0.000000 0.000000 0.000000 0.000000 0.000000 0.000000 0.000000 0.000000 0.000000 0.000000 0.000000 0.000000 0.000000 0.002091 18.987074 -0.000350 0.000000 16.984816 0.000000 0.000000 5.997237 0.000000 -0.003221 -13.991744 -0.001883 0.000000 0.000000 0.000000 0.000000 0.000000 0.000000 12.938582 0.093113 -3.000579 64.403053 20.709356 4.546568 -3.120198 -17.877947 -19.969923 11.181604 6.382027 3.831815 -13.748915 22.312551 -9.737385 -9.475119 -11.962907 -5.507333 -18.123634 23.750624 10.967706 0.000000 0.000000 0.000000 -12.207973 -8.431524 -19.803741 -2.223888 -1.159013 0.291114 -7.259019 -5.592237 -1.255659 -9.740203 -3.721365 -7.587910 -1.783118 2.627386 -3.967547 3.453417 6.215568 -1.440363 0.000000 0.000000 0.000000 -14.660798 -10.023761 -2.815101 13.948608 10.078546 -6.810166 11.407815 10.810603 -0.440301 -22.328945 -24.712559 -15.184535 1.601209 7.628083 -6.170690 27.021828 15.125072 2.983624 -18.125790 -0.052659 3.725971 -57.378540 24.513710 -2.576673 -0.282900 -11.908477 8.588455 -2.725052 2.048131 -3.200148 20.264267 16.012875 11.237601 5.406654 -14.233193 -9.902623 16.498470 20.810619 -16.029562 0.000000 0.000000 0.000000 10.482573 -8.511680 17.446299 2.621647 -0.132995 1.350808 6.204592 -3.793835 1.179693 8.647410 -3.307333 7.176097 0.594762 3.049653 3.815826 -0.477300 4.595424 2.175196 0.000000 0.000000 0.000000 7.389659 -8.256560 -0.001990 -4.601523 5.037233 6.969790 -1.274504 8.359025 3.952809 21.732252 -24.655798 14.891180 -3.732228 6.955374 6.821255 -24.777864 21.503391 1.893739 0.109883 -0.005378 -0.322644 -0.147609 -0.007368 0.433438 
0.357458 1.003053 -0.054744 -0.586373 3.568891 -0.961641 0.000000 0.000000 0.000000 1.832958 -7.412780 -5.191406 -2.683551 6.997518 -11.526514 6.676023 -18.942326 9.784643 4.423224 -8.231279 1.748509 0.000000 0.000000 0.000000 -3.346715 -4.764985 0.590806 1.266475 1.885047 7.243786 -2.336128 -16.400726 8.514829 -4.394424 -8.289882 -1.796204 0.000000 0.000000 0.000000 1.333220 -2.584740 3.323937 0.000000 0.000000 0.000000 -0.631910 6.576941 2.385378 -4.883410 -17.551060 -1.524258 3.854251 11.999299 -4.125097 0.000000 0.000000 0.000000 0.000000 0.000000 0.000000 0.000000 0.000000 0.000000 0.000000 0.000000 0.000000 0.000000 0.000000 0.000000 0.002091 18.987074 -0.000350 0.000000 16.984816 0.000000 0.000000 5.997237 0.000000 -0.003221 -13.991744 -0.001883 0.000000 0.000000 0.000000 0.000000 0.000000 0.000000 12.919700 0.101378 -2.943439 63.706085 21.124166 5.218886 -2.862025 -18.403883 -20.248083 11.546213 6.245548 3.053709 -12.874851 22.719398 -10.300856 -9.248766 -12.120133 -4.603642 -18.123634 23.750624 10.967706 0.000000 0.000000 0.000000 -12.268603 -8.284263 -19.892815 -2.236827 -1.178357 0.286005 -7.045853 -5.398349 -1.229371 -9.780947 -3.744348 -7.592917 -1.783118 2.627386 -3.967547 3.416899 6.186989 -1.442858 0.000000 0.000000 0.000000 -14.577470 -10.078415 -2.745175 13.461190 9.872129 -6.792216 11.300363 10.756705 -0.438042 -22.539154 -24.914213 -15.018976 1.478997 7.555453 -6.205642 26.809719 14.999208 2.960974 -18.217630 -0.035271 3.660127 -56.836025 25.540163 -2.817557 -0.425142 -12.463603 8.599640 -2.955076 2.182650 -3.278455 20.264267 16.012875 11.237601 5.406654 -14.233193 -9.902623 16.498470 20.810619 -16.029562 0.000000 0.000000 0.000000 10.482573 -8.511680 17.446299 2.778593 -0.276434 1.359908 6.414504 -4.000072 1.210179 8.647410 -3.307333 7.176097 0.594762 3.049653 3.815826 -0.477300 4.595424 2.175196 0.000000 0.000000 0.000000 7.269848 -8.210003 -0.023453 -4.980041 5.186696 6.966128 -1.274504 8.359025 3.952809 21.643263 -24.650856 14.848243 -5.125461 7.475612 6.750013 -25.087708 21.676916 1.877781 0.107990 -0.005280 -0.317085 -0.145755 -0.007268 0.427990 
